<svg class="svg-icon" style="width: 1em; height: 1em;vertical-align: middle;fill: currentColor;overflow: hidden;" viewBox="0 0 1024 1024" version="1.1" xmlns="http://www.w3.org/2000/svg"><path d="M594.17284 792.110053c-84.881834 0-178.793651-42.982716-251.03351-115.222575-101.135802-101.135802-140.867725-236.224339-98.968607-335.915344 1.083598-3.250794 1.083598-13.364374 1.083598-19.865961 0-19.504762-0.361199-44.066314 16.253968-60.681482 16.253968-16.253968 40.81552-16.253968 55.263492-16.253968h10.113581c10.11358 0 13.725573-0.722399 14.809171-1.083598 25.64515-10.835979 54.179894-16.253968 84.881834-16.253968 84.881834 0 178.793651 42.982716 251.03351 115.222575 101.135802 101.135802 140.867725 236.224339 98.968606 335.915344-1.083598 3.250794-1.083598 13.364374-1.083598 19.865961 0 19.504762 0.361199 44.066314-16.253968 60.681482-16.253968 16.253968-40.454321 16.253968-54.902293 16.253968h-10.474779c-10.11358 0-13.725573 0.722399-14.809171 1.083598-25.64515 10.835979-54.179894 16.253968-84.881834 16.253968z m0 0" fill="#05371D" /><path d="M363.005291 656.660317c-94.273016-94.273016-129.309347-218.886772-93.189418-305.213403 7.585185-18.421164-3.250794-57.069489 11.197178-71.156261 14.447972-14.447972 52.735097-3.611993 71.156261-11.197179 86.326631-36.119929 210.940388-1.444797 305.213404 93.189418 94.273016 94.273016 129.309347 218.886772 93.189418 305.213404-7.585185 18.421164 3.250794 57.069489-11.197178 71.156261-14.447972 14.447972-52.735097 3.611993-71.156261 11.197178-86.326631 36.119929-210.940388 1.444797-305.213404-93.189418z m0 0" fill="#F3D33C" /><path d="M269.093474 507.12381c62.126279 101.135802 173.736861 168.318871 301.240212 168.318871 68.627866 0 135.449735-19.865961 192.880423-57.430688-1.805996 16.976367-6.140388 33.591534-12.641975 49.123104-7.946384 18.421164 2.889594 57.069489-11.197178 71.156261-14.447972 14.447972-52.735097 3.611993-71.156261 11.197178-86.326631 36.119929-210.940388 1.083598-305.213404-93.189418-45.511111-44.788713-77.296649-97.16261-93.911817-149.175308z m0 0" fill="#F4AA14" /><path d="M550.828924 514.708995c-14.086772 13.725573-36.481129 13.364374-49.845502-0.722399-2.889594-2.889594-2.528395-7.223986 0-10.11358 2.889594-2.889594 7.223986-2.528395 10.11358 0 8.307584 8.307584 21.671958 8.668783 29.979541 0.361199 8.307584-8.307584 8.668783-21.671958 0.3612-29.979541-2.889594-2.889594-2.528395-7.223986 0-10.113581 2.889594-2.889594 7.223986-2.528395 10.11358 0 13.725573 14.447972 13.364374 36.842328-0.722399 50.567902z m0 0M552.634921 384.677249c-8.307584-8.307584-21.671958-8.668783-29.979542-0.3612-8.307584 8.307584-8.668783 21.671958-0.361199 29.979542 8.307584 8.307584 21.671958 8.668783 29.979541 0.361199 8.307584-8.307584 8.307584-21.671958 0.3612-29.979541z m0 0M451.499118 483.284656c-5.417989-5.417989-13.003175-7.585185-20.58836-5.779189-7.223986 1.805996-13.003175 7.585185-15.17037 14.809171-2.167196 7.223986 0 15.17037 5.05679 20.58836 5.417989 5.417989 13.003175 7.585185 20.58836 5.779189 7.223986-1.805996 13.003175-7.585185 15.17037-14.809171 2.167196-7.223986 0-15.17037-5.05679-20.58836z m0 0" fill="#05371D" /><path d="M582.253263 404.904409c-3.611993 3.611993-5.05679 8.668783-3.973192 13.725573 1.083598 5.05679 5.05679 8.668783 9.75238 10.113581 4.695591 1.444797 10.11358 0 13.725574-3.611993l20.22716-19.865962c3.611993-3.611993 5.05679-8.668783 3.973192-13.725573-1.083598-5.05679-5.05679-8.668783-9.752381-10.11358-4.695591-1.444797-10.11358 0-13.725573 3.611993l-20.22716 19.865961z m-161.817284 158.205291c-5.417989 5.417989-5.779189 14.447972-0.361199 19.865961s14.447972 5.779189 19.865961 0.3612l20.22716-19.865962c3.611993-3.611993 5.05679-8.668783 3.973192-13.725573-1.083598-5.05679-5.05679-8.668783-9.75238-10.11358-4.695591-1.444797-10.11358 0-13.725574 3.611993l-20.22716 19.865961z m0 0" fill="#F5E4AB" /><path d="M694.225044 650.881129c0-5.05679-2.528395-9.752381-7.223986-12.280776-4.334392-2.528395-9.752381-2.528395-14.086772 0-4.334392 2.528395-7.223986 7.223986-7.223986 12.280776 0 7.946384 6.501587 14.086772 14.086772 14.086772 7.946384 0 14.447972-6.501587 14.447972-14.086772z m0 0M665.6903 707.228219c0-5.05679-2.528395-9.752381-7.223986-12.280776-4.334392-2.528395-9.752381-2.528395-14.086773 0-4.334392 2.528395-7.223986 7.223986-7.223985 12.280776 0 7.946384 6.501587 14.086772 14.086772 14.086772 8.307584 0 14.447972-6.140388 14.447972-14.086772z m0 0M489.063845 700.365432c0-7.946384-6.501587-14.086772-14.086773-14.086772-7.946384 0-14.086772 6.501587-14.086772 14.086772 0 7.946384 6.501587 14.086772 14.086772 14.086773 7.946384 0 14.086772-6.501587 14.086773-14.086773z m0 0M736.485362 679.054674c0-7.946384-6.501587-14.086772-14.086773-14.086773-7.946384 0-14.086772 6.501587-14.086772 14.086773 0 7.946384 6.501587 14.086772 14.086772 14.086772 7.585185 0 14.086772-6.140388 14.086773-14.086772z m0 0" fill="#B0901B" /></svg>